<?xml version="1.0" standalone="no"?>
<!DOCTYPE svg PUBLIC "-//W3C//DTD SVG 20010904//EN"
 "http://www.w3.org/TR/2001/REC-SVG-20010904/DTD/svg10.dtd">
<svg version="1.0" xmlns="http://www.w3.org/2000/svg"
 width="1472.000000pt" height="832.000000pt" viewBox="0 0 1472.000000 832.000000"
 preserveAspectRatio="xMidYMid meet">

<g transform="translate(0.000000,832.000000) scale(0.100000,-0.100000)"
fill="#000000" stroke="none">
<path d="M6400 6295 c-14 -8 -20 -14 -14 -15 5 0 19 7 30 15 24 18 16 19 -16
0z"/>
<path d="M6035 6049 c-46 -35 -72 -61 -35 -36 14 10 35 22 47 29 12 6 24 17
27 24 7 17 9 18 -39 -17z"/>
<path d="M6663 5998 c-13 -6 -23 -15 -23 -20 0 -5 -5 -6 -10 -3 -6 3 -13 -1
-16 -9 -3 -9 -10 -14 -14 -11 -5 3 -11 1 -14 -4 -13 -21 14 -20 29 1 8 13 17
21 18 18 1 -3 16 5 32 17 33 24 32 27 -2 11z"/>
<path d="M5949 5983 c-13 -16 -12 -17 4 -4 16 13 21 21 13 21 -2 0 -10 -8 -17
-17z"/>
<path d="M6480 5962 c0 -5 -10 -12 -22 -15 -12 -4 -19 -9 -16 -12 3 -4 19 0
34 8 17 9 23 17 15 21 -6 4 -11 3 -11 -2z"/>
<path d="M5882 5942 l-23 -18 28 1 c15 0 27 3 26 8 -5 23 -10 24 -31 9z"/>
<path d="M5945 5950 c-3 -5 -1 -10 4 -10 6 0 11 5 11 10 0 6 -2 10 -4 10 -3 0
-8 -4 -11 -10z"/>
<path d="M6490 5884 c-41 -30 -92 -65 -112 -76 -21 -12 -38 -25 -38 -30 0 -4
-6 -8 -14 -8 -8 0 -28 -13 -45 -29 -18 -17 -33 -29 -34 -28 -1 1 -16 -8 -32
-21 l-30 -23 41 21 c22 11 50 29 62 40 12 11 24 20 28 20 8 0 159 106 178 125
7 8 16 11 20 8 3 -4 6 -1 6 6 0 7 5 9 12 5 6 -4 8 -3 5 3 -7 11 20 28 36 24 5
-1 6 3 2 9 -8 13 1 18 -85 -46z"/>
<path d="M6403 5905 c0 -8 4 -12 9 -9 5 3 6 10 3 15 -9 13 -12 11 -12 -6z"/>
<path d="M5809 5889 l-24 -20 28 17 c15 9 27 18 27 20 0 8 -8 4 -31 -17z"/>
<path d="M6359 5873 c-13 -17 -13 -17 6 -3 11 8 22 16 24 17 2 2 0 3 -6 3 -6
0 -17 -8 -24 -17z"/>
<path d="M5704 5815 c-10 -8 -14 -14 -9 -14 6 0 19 6 29 14 11 8 15 15 10 15
-6 0 -19 -7 -30 -15z"/>
<path d="M6245 5820 c-3 -6 1 -7 9 -4 18 7 21 14 7 14 -6 0 -13 -4 -16 -10z"/>
<path d="M6245 5797 c-12 -7 -27 -18 -35 -25 -8 -7 -24 -19 -35 -27 -11 -8
-15 -15 -9 -15 6 0 23 11 38 25 15 14 31 25 35 25 5 0 14 7 21 15 14 17 13 17
-15 2z"/>
<path d="M5553 5713 c-15 -5 -17 -23 -4 -23 5 0 11 7 15 15 3 8 4 15 3 14 -1
0 -8 -3 -14 -6z"/>
<path d="M6114 5706 c-10 -8 -17 -16 -14 -19 3 -2 14 4 24 14 23 22 18 25 -10
5z"/>
<path d="M5509 5679 c-9 -6 4 -9 40 -9 30 0 52 2 50 4 -11 9 -77 13 -90 5z"/>
<path d="M5698 5673 c12 -2 30 -2 40 0 9 3 -1 5 -23 4 -22 0 -30 -2 -17 -4z"/>
<path d="M5858 5673 c34 -2 88 -2 120 0 31 2 3 3 -63 3 -66 0 -92 -1 -57 -3z"/>
<path d="M5122 5529 c-38 -15 -75 -48 -99 -87 l-23 -37 0 -1192 0 -1192 24
-28 24 -28 1982 -3 1981 -2 29 28 c19 19 30 43 35 73 3 24 5 562 3 1194 -3
1049 -4 1153 -20 1180 -22 40 -66 81 -101 94 -37 14 -3801 14 -3835 0z m3802
-185 c3 -9 6 -51 6 -95 l0 -79 -1874 0 c-1031 0 -1881 3 -1890 6 -23 9 -23
146 0 168 14 14 199 16 1884 16 1694 0 1868 -1 1874 -16z m-654 -254 c-8 -5
-19 -10 -25 -10 -5 0 -3 5 5 10 8 5 20 10 25 10 6 0 3 -5 -5 -10z m40 -77 c0
-7 6 -13 13 -13 6 0 23 -12 37 -27 14 -14 37 -33 51 -42 24 -16 259 -190 269
-201 7 -7 68 -52 115 -85 37 -26 38 -27 11 -21 -16 4 -48 20 -70 37 -23 16
-68 48 -101 71 -33 23 -64 47 -70 53 -5 7 -26 22 -46 33 -20 12 -53 35 -74 52
-20 16 -41 27 -46 24 -5 -3 -6 1 -4 9 8 20 -78 60 -114 52 -32 -7 -47 7 -60
53 -7 22 -5 34 6 45 14 14 19 13 49 -6 19 -12 34 -28 34 -34z m-2412 -120 c94
-45 131 -211 68 -304 l-23 -33 44 -41 c24 -23 43 -50 43 -60 0 -24 -98 -115
-124 -115 -12 0 -51 31 -94 75 -40 41 -70 66 -67 54 9 -27 -16 -62 -59 -83
-28 -13 -43 -14 -80 -6 -70 16 -92 29 -117 74 -22 38 -24 51 -24 197 l0 156
30 39 c16 21 29 43 27 47 -1 5 2 6 7 3 5 -3 24 1 42 9 45 21 276 12 327 -12z
m1992 -53 c0 -5 9 -10 20 -10 30 0 107 -41 188 -102 39 -29 90 -66 113 -83 24
-16 70 -51 103 -76 34 -25 89 -64 122 -87 34 -23 68 -47 75 -54 8 -8 38 -29
67 -47 30 -19 61 -46 70 -60 9 -14 21 -29 26 -33 34 -23 193 -147 215 -166
l26 -23 -37 23 c-20 13 -82 54 -137 91 -55 38 -105 66 -111 62 -18 -11 -63 24
-57 46 7 24 -20 47 -213 183 -85 60 -157 112 -160 115 -13 15 -131 101 -192
139 -105 68 -161 75 -235 30 -29 -17 -32 -22 -21 -41 10 -21 10 -21 -8 -5 -16
13 -21 14 -31 2 -7 -7 -13 -18 -13 -23 0 -6 6 -8 13 -6 19 7 41 -11 34 -29 -8
-21 -49 -37 -61 -25 -15 14 -26 11 -27 -8 0 -11 -3 -13 -6 -5 -2 6 -9 10 -14
7 -5 -4 -6 0 -3 8 10 27 -18 31 -37 6 -10 -13 -21 -20 -25 -16 -4 4 -1 7 6 7
7 0 11 3 7 6 -8 9 -107 -58 -100 -69 3 -4 -1 -7 -8 -6 -8 2 -54 -24 -104 -56
-104 -69 -117 -80 -107 -90 4 -5 1 -5 -6 -1 -16 9 -44 -12 -35 -27 4 -6 0 -8
-10 -4 -8 3 -21 -1 -27 -9 -10 -11 -10 -14 0 -14 8 0 10 -10 6 -32 -3 -18 -1
-40 4 -48 8 -12 10 -12 10 5 0 19 1 19 18 1 13 -14 14 -19 4 -23 -10 -4 -8
-11 9 -29 17 -19 25 -21 32 -12 6 9 7 8 3 -4 -4 -12 0 -18 12 -19 11 0 12 -2
4 -6 -8 -3 4 -16 31 -33 67 -42 87 -83 94 -188 6 -88 5 -89 -22 -110 -23 -18
-41 -22 -101 -22 -40 0 -76 -5 -79 -10 -4 -6 -1 -26 5 -45 13 -40 41 -49 131
-43 l54 3 3 -37 c3 -35 1 -37 -33 -44 -19 -3 -64 -5 -98 -2 -68 4 -106 24
-128 68 -14 27 -26 322 -15 365 6 25 79 75 109 75 9 0 18 4 21 8 6 10 -91 86
-122 96 -32 11 -62 46 -63 75 l-1 26 -8 -25 c-5 -17 -8 -19 -9 -7 -1 9 0 19 2
21 5 10 -48 56 -61 51 -7 -2 -10 0 -7 5 3 6 -2 10 -11 10 -10 0 -15 3 -11 6 3
3 -8 18 -24 32 -26 21 -32 23 -41 11 -8 -11 -9 -10 -4 4 4 12 -6 26 -36 47
-22 16 -46 27 -52 23 -6 -3 -8 -3 -4 2 11 11 -60 58 -74 49 -7 -4 -8 -3 -4 5
5 7 -5 17 -28 26 -53 22 -462 22 -487 0 -21 -20 -66 -10 -74 16 -10 31 21 71
48 63 12 -3 27 -12 32 -19 8 -9 69 -13 240 -14 226 -2 231 -2 283 -28 28 -14
52 -29 52 -32 0 -12 57 -41 65 -33 5 4 5 2 2 -4 -4 -6 18 -28 51 -50 31 -21
62 -43 68 -49 56 -51 76 -65 84 -60 5 3 12 0 16 -6 5 -8 3 -9 -7 -4 -8 5 -6
-1 5 -13 12 -14 28 -21 45 -19 34 4 83 36 74 50 -4 6 -1 7 7 2 7 -4 15 -3 19
2 3 6 46 36 96 68 49 32 95 64 103 71 7 8 19 14 26 14 7 0 21 9 31 20 10 11
23 20 30 20 6 0 37 18 68 39 30 22 58 36 62 33 3 -4 9 -2 13 4 16 22 130 89
172 100 57 16 60 16 60 4z m106 -237 c-14 -4 -9 -9 24 -24 51 -23 56 -23 40
-4 -11 13 -10 14 4 9 10 -4 15 -12 13 -19 -3 -6 9 -33 26 -58 31 -46 32 -50
27 -130 -4 -69 -2 -85 12 -99 17 -17 17 -18 -1 -27 -36 -19 -51 15 -51 114 0
71 -4 94 -20 121 -25 40 -92 74 -146 74 -42 0 -144 -51 -144 -72 0 -6 -3 -8
-6 -5 -4 3 -34 -19 -68 -49 -33 -30 -80 -67 -103 -82 -24 -15 -43 -30 -43 -34
0 -16 90 -266 114 -318 l26 -55 0 203 0 203 43 -3 42 -3 0 -118 c0 -64 3 -117
7 -117 3 0 19 15 35 34 15 19 40 39 55 45 36 14 37 10 40 -197 3 -158 4 -164
27 -183 27 -22 74 -25 90 -6 7 9 12 85 13 208 l3 194 38 3 37 3 0 -296 0 -295
-34 -38 c-34 -36 -36 -37 -120 -41 -97 -4 -116 5 -116 52 l0 30 70 -7 c66 -7
71 -6 95 18 14 14 25 37 25 51 0 24 -3 25 -52 25 -60 0 -106 23 -135 67 -15
22 -19 55 -23 173 -3 80 -9 139 -13 133 -5 -7 -17 -13 -28 -13 -19 0 -20 -5
-13 -190 l7 -190 -45 0 -45 0 -13 58 c-11 52 -44 136 -121 312 l-28 65 -3
-220 -3 -220 -37 -3 -38 -3 -2 305 c-1 168 -2 321 -2 339 -1 31 1 32 45 37 26
3 59 14 74 25 30 22 157 125 165 135 20 23 109 70 144 74 106 14 145 17 112 9z
m-511 -41 c-3 -3 -11 0 -18 7 -9 10 -8 11 6 5 10 -3 15 -9 12 -12z m635 -33
c0 -6 -4 -7 -10 -4 -5 3 -10 11 -10 16 0 6 5 7 10 4 6 -3 10 -11 10 -16z
m-705 1 c-3 -5 -12 -10 -18 -10 -7 0 -6 4 3 10 19 12 23 12 15 0z m620 -23 c4
5 5 2 1 -5 -6 -9 -11 -10 -20 -3 -7 6 -15 9 -18 6 -2 -3 -5 2 -5 10 0 13 2 13
17 0 9 -8 20 -12 25 -8z m-201 5 c3 -5 -1 -9 -9 -9 -8 0 -12 4 -9 9 3 4 7 8 9
8 2 0 6 -4 9 -8z m-19 -30 c-3 -3 -11 0 -18 7 -9 10 -8 11 6 5 10 -3 15 -9 12
-12z m-150 -12 c3 -6 -1 -7 -9 -4 -18 7 -21 14 -7 14 6 0 13 -4 16 -10z m-551
-16 c3 -8 2 -12 -4 -9 -6 3 -10 10 -10 16 0 14 7 11 14 -7z m46 -14 c-24 -15
-36 -11 -14 4 10 8 21 12 24 10 2 -3 -2 -9 -10 -14z m-1686 -6 c3 -8 2 -12 -4
-9 -6 3 -10 10 -10 16 0 14 7 11 14 -7z m2277 -11 c13 -16 12 -17 -3 -4 -10 7
-18 15 -18 17 0 8 8 3 21 -13z m-711 -7 c0 -2 -8 -10 -17 -17 -16 -13 -17 -12
-4 4 13 16 21 21 21 13z m425 -26 c3 -5 1 -10 -4 -10 -6 0 -11 5 -11 10 0 6 2
10 4 10 3 0 8 -4 11 -10z m-1890 -41 c71 -19 102 -62 111 -156 8 -78 -8 -131
-58 -187 l-41 -47 18 -37 c47 -96 95 -218 91 -229 -3 -7 -2 -12 2 -11 4 1 30
-13 57 -30 58 -38 146 -66 183 -59 41 8 90 28 170 70 l72 38 0 122 c0 67 -3
159 -7 205 -6 76 -8 83 -30 88 -14 4 -29 2 -34 -3 -6 -6 -11 -98 -12 -219 l-2
-209 -35 0 -35 0 -3 228 -2 228 29 30 c34 33 83 39 131 14 27 -14 33 -14 61 1
22 11 44 14 73 10 50 -7 59 -7 117 0 39 5 50 2 76 -20 17 -14 32 -24 34 -21 9
8 11 -32 15 -247 l5 -218 -41 0 -40 0 0 189 c0 177 -1 190 -21 215 -14 17 -29
26 -43 24 -20 -3 -21 -7 -22 -212 -2 -221 -4 -233 -49 -220 -11 4 -22 8 -24
10 -2 1 -4 93 -5 203 -1 211 -7 238 -44 215 -15 -10 -17 -34 -19 -203 -2 -191
-7 -221 -37 -221 -7 0 -34 -14 -62 -32 -64 -41 -179 -89 -218 -90 -27 0 -69 8
-139 28 -9 3 -15 10 -12 15 3 5 -1 6 -9 3 -8 -3 -36 12 -66 35 -29 23 -58 41
-66 41 -8 0 -34 31 -58 68 -24 38 -61 83 -82 100 -44 36 -24 46 21 10 l27 -21
-7 24 c-20 65 -34 86 -59 91 l-26 5 0 -138 c0 -127 -2 -138 -19 -144 -11 -3
-31 -3 -45 1 l-25 6 -3 329 c-2 213 1 330 7 333 21 9 162 5 200 -5z m1460 -31
c1 -18 2 -52 3 -75 l2 -43 45 0 c42 0 58 -11 35 -25 -5 -3 -10 -17 -10 -31 0
-21 -5 -24 -34 -24 l-33 0 -5 -157 c-3 -87 -2 -168 3 -180 5 -15 18 -23 41
-25 30 -3 33 -6 33 -38 0 -32 -3 -35 -32 -38 -48 -5 -103 25 -119 64 -10 24
-14 82 -14 204 l0 170 -26 0 c-23 0 -25 3 -22 38 2 30 7 38 26 40 20 3 22 9
22 61 0 64 13 88 50 93 32 5 33 4 35 -34z m239 -33 c-7 -16 -24 -21 -24 -6 0
8 7 13 27 20 1 1 0 -6 -3 -14z m606 -80 c0 -11 -29 -11 -33 -1 -4 10 1 12 14
9 10 -3 19 -7 19 -8z m-1064 -25 c62 -39 69 -64 69 -247 0 -147 -2 -164 -21
-190 -65 -89 -209 -76 -250 23 -21 49 -22 320 -1 359 43 84 121 105 203 55z
m1460 -60 l37 -80 39 80 39 80 44 0 44 0 -55 -117 c-31 -65 -60 -123 -66 -130
-7 -9 5 -46 46 -134 30 -67 53 -126 50 -130 -3 -5 -21 -9 -40 -9 -34 0 -36 2
-71 80 -20 45 -39 77 -43 73 -4 -4 -15 -31 -24 -58 -24 -75 -41 -95 -81 -95
-42 0 -49 10 -31 46 31 62 96 218 96 229 0 7 -22 60 -50 118 -27 58 -50 111
-50 117 0 5 18 10 39 10 39 0 39 0 77 -80z m-2356 55 c47 -24 60 -61 60 -168
0 -121 -8 -130 -122 -136 l-80 -3 7 -37 c9 -52 28 -62 110 -60 l70 2 3 -40 3
-41 -43 -6 c-54 -8 -146 9 -171 32 -44 39 -51 70 -51 227 -1 164 7 194 63 228
33 21 113 22 151 2z m2701 5 c24 -13 25 -57 2 -82 -22 -25 -79 -24 -93 1 -33
63 26 115 91 81z m-3427 -592 c9 -12 16 -30 16 -39 0 -20 18 -35 179 -153 125
-92 181 -147 181 -179 0 -10 10 -27 21 -36 41 -33 -3 -87 -51 -61 -21 11 -30
70 -10 70 19 0 10 49 -15 78 -36 43 -319 252 -340 252 -44 0 -72 59 -37 79 26
16 39 13 56 -11z m996 -178 c19 -19 38 -19 677 -21 362 -1 686 -5 720 -9 76
-9 137 -39 181 -88 36 -39 72 -102 72 -125 0 -8 9 -22 20 -32 21 -19 27 -69 9
-80 -18 -12 -57 4 -64 26 -4 11 0 30 9 44 13 19 13 30 4 56 -21 59 -85 126
-155 160 l-48 24 -700 0 c-661 0 -702 -1 -727 -18 -35 -24 -68 -9 -68 31 0 51
35 67 70 32z"/>
<path d="M5284 5265 c-4 -9 -2 -21 4 -27 15 -15 44 -1 40 19 -4 23 -36 29 -44
8z"/>
<path d="M5390 5259 c0 -5 4 -8 9 -5 5 4 11 1 13 -6 2 -6 10 -8 16 -4 20 12
13 26 -13 26 -14 0 -25 -5 -25 -11z"/>
<path d="M5465 5261 c5 -10 134 -6 143 4 3 3 -29 5 -72 5 -45 0 -75 -4 -71 -9z"/>
<path d="M5745 5260 c3 -6 50 -10 106 -10 59 0 99 4 99 10 0 6 -42 10 -106 10
-67 0 -103 -4 -99 -10z"/>
<path d="M6073 5263 c15 -2 39 -2 55 0 15 2 2 4 -28 4 -30 0 -43 -2 -27 -4z"/>
<path d="M6298 5263 c29 -2 74 -2 100 0 26 2 2 3 -53 3 -55 0 -76 -1 -47 -3z"/>
<path d="M6573 5263 c15 -2 39 -2 55 0 15 2 2 4 -28 4 -30 0 -43 -2 -27 -4z"/>
<path d="M7873 5263 c15 -2 37 -2 50 0 12 2 0 4 -28 4 -27 0 -38 -2 -22 -4z"/>
<path d="M8190 5262 c0 -11 137 -14 195 -3 43 7 32 9 -72 10 -68 0 -123 -2
-123 -7z"/>
<path d="M8583 5263 c20 -2 54 -2 75 0 20 2 3 4 -38 4 -41 0 -58 -2 -37 -4z"/>
<path d="M8230 5040 c-9 -6 -10 -10 -3 -10 6 0 15 5 18 10 8 12 4 12 -15 0z"/>
<path d="M5595 4788 c-25 -22 -26 -28 -29 -138 -2 -120 6 -170 30 -170 11 0
14 25 14 130 0 119 2 132 21 151 19 19 30 21 105 17 110 -4 125 -21 102 -120
-2 -10 -8 -21 -13 -25 -4 -4 -5 -2 -1 5 9 15 4 15 -59 -2 -38 -10 -51 -18 -53
-35 -3 -15 2 -21 16 -21 11 0 45 -22 75 -50 30 -27 60 -50 66 -50 22 0 10 32
-29 74 -42 45 -50 66 -26 66 8 0 29 12 46 27 30 24 32 30 27 72 -4 33 -12 52
-32 68 -24 21 -36 23 -130 23 -93 0 -107 -2 -130 -22z"/>
<path d="M7140 4366 c0 -9 5 -16 10 -16 6 0 10 4 10 9 0 6 -4 13 -10 16 -5 3
-10 -1 -10 -9z"/>
<path d="M7240 4113 c-25 -10 -30 -25 -30 -96 l0 -68 57 3 c52 3 58 5 63 28 7
30 -3 107 -16 120 -13 12 -56 20 -74 13z"/>
<path d="M5460 4213 c0 -32 -3 -82 -6 -110 l-7 -53 45 0 c66 0 89 22 95 91 7
95 -8 115 -87 125 l-40 5 0 -58z"/>
<path d="M5735 3640 c10 -11 20 -20 23 -20 3 0 -3 9 -13 20 -10 11 -20 20 -23
20 -3 0 3 -9 13 -20z"/>
<path d="M6702 4104 c-21 -14 -22 -22 -22 -159 0 -161 5 -175 64 -175 56 0 61
16 59 169 -3 132 -3 137 -28 159 -31 26 -43 27 -73 6z"/>
<path d="M5795 4086 c-11 -16 -15 -41 -13 -78 l3 -53 42 -3 c23 -2 52 2 64 8
19 11 21 18 16 67 -7 66 -19 83 -63 83 -24 0 -38 -7 -49 -24z"/>
<path d="M8546 4164 c-31 -30 -13 -74 29 -74 25 0 55 29 55 53 0 17 -29 37
-54 37 -8 0 -22 -7 -30 -16z m49 -4 c-4 -6 -11 -8 -16 -5 -5 4 -9 -4 -9 -16 0
-22 0 -22 21 -3 22 19 22 19 8 -3 -13 -22 -39 -30 -52 -17 -11 11 16 54 35 54
11 0 16 -5 13 -10z"/>
<path d="M9551 3846 l-1 -599 -45 -43 c-25 -24 -52 -44 -61 -44 -10 0 -14 -6
-11 -14 3 -8 1 -17 -6 -20 -8 -3 -9 -5 -1 -5 7 -1 41 28 77 64 l65 64 -5 588
c-3 323 -6 593 -8 598 -2 6 -4 -260 -4 -589z"/>
<path d="M9800 4293 c0 -6 8 -17 18 -24 16 -13 16 -13 2 6 -8 11 -16 22 -17
24 -2 2 -3 0 -3 -6z"/>
<path d="M9807 4220 c-3 -11 -3 -20 -1 -20 2 0 8 9 14 20 6 11 7 20 2 20 -6 0
-12 -9 -15 -20z"/>
<path d="M9750 3582 c0 -343 4 -562 9 -562 10 0 6 1108 -4 1118 -3 3 -5 -247
-5 -556z"/>
<path d="M4352 3074 c-1 -172 2 -324 8 -355 21 -113 96 -231 201 -315 63 -51
150 -104 161 -98 6 4 8 3 5 -3 -8 -13 74 -72 92 -65 8 2 11 0 8 -5 -4 -6 24
-30 61 -53 37 -23 81 -52 97 -63 17 -12 64 -45 105 -73 41 -28 95 -65 120 -83
194 -139 255 -164 375 -159 68 4 93 10 169 46 l88 42 -68 52 c-109 84 -200
150 -325 234 -64 44 -176 121 -249 172 -198 138 -200 139 -319 152 -77 8 -119
19 -166 41 -132 62 -208 165 -209 283 -1 75 19 108 83 140 l45 23 -37 5 c-29
3 -34 1 -25 -9 8 -10 7 -13 -5 -13 -8 0 -29 -18 -45 -40 -27 -37 -30 -39 -35
-19 -7 25 1 49 15 49 6 0 5 -7 -2 -15 -7 -9 -10 -18 -7 -21 10 -11 34 41 36
79 1 31 -2 37 -19 37 -11 0 -20 7 -20 15 0 21 -30 19 -31 -2 0 -10 -3 -13 -5
-6 -3 7 -12 9 -20 6 -10 -4 -14 4 -14 30 0 22 -6 37 -15 41 -13 4 -15 -8 -16
-77 -1 -45 -4 -93 -8 -106 -3 -13 -6 38 -5 115 1 126 0 130 -5 39 -5 -92 -6
-85 -11 90 -5 180 -6 175 -8 -111z m15 -226 c-3 -7 -5 -2 -5 12 0 14 2 19 5
13 2 -7 2 -19 0 -25z"/>
<path d="M4672 3089 c-2 -60 -11 -74 -52 -82 l-25 -4 25 -1 c47 -2 61 19 57
84 l-3 59 -2 -56z"/>
<path d="M4670 3001 c0 -5 -8 -12 -17 -14 -11 -3 -7 -5 10 -6 27 -1 36 12 17
24 -5 3 -10 2 -10 -4z"/>
<path d="M9772 2974 c-5 -120 -55 -250 -119 -310 -21 -20 -72 -57 -115 -82
-43 -26 -78 -50 -78 -55 0 -9 -2 -10 105 59 44 28 94 67 111 85 66 70 109 197
102 294 -4 48 -4 48 -6 9z"/>
<path d="M4636 2851 c-3 -5 4 -11 17 -15 12 -3 459 -6 994 -6 l972 0 12 -22
c7 -13 17 -26 23 -30 6 -4 186 -8 399 -8 l388 0 17 30 17 30 999 2 c789 2
1000 6 1004 16 3 9 -485 12 -2417 12 -1395 0 -2422 -4 -2425 -9z"/>
<path d="M4700 2742 c0 -9 16 -27 35 -40 79 -51 75 -50 1035 -50 746 0 1461
10 1206 16 -38 1 -67 5 -64 8 4 3 82 5 175 5 92 0 195 4 228 8 l60 8 -50 3
c-58 3 -48 6 50 16 54 5 64 9 45 15 -23 6 -23 7 -3 8 12 1 24 -3 28 -9 3 -5
21 -8 40 -6 19 1 35 -1 35 -6 0 -4 19 -9 43 -10 l42 -1 -50 -7 c-44 -6 -40 -7
38 -8 52 -1 87 2 87 8 0 6 19 9 43 9 l42 -2 -40 -6 -40 -6 55 -8 c71 -9 224
-9 381 0 100 6 115 9 79 14 -25 4 64 5 197 2 244 -5 574 4 555 16 -5 3 22 7
62 8 122 3 29 -15 -139 -27 -82 -6 -152 -14 -155 -17 -3 -3 26 -3 63 1 81 8
357 -4 357 -15 0 -4 -21 -10 -47 -12 -27 -2 -3 -3 52 -1 58 2 119 10 146 19
49 17 95 57 85 73 -4 7 -811 10 -2341 10 -2176 0 -2335 -1 -2335 -16z m2800
-2 c0 -5 -5 -10 -11 -10 -5 0 -7 5 -4 10 3 6 8 10 11 10 2 0 4 -4 4 -10z
m1200 -20 c17 -5 -4 -8 -60 -8 -66 1 -76 2 -45 8 53 10 75 10 105 0z m428 -27
c-32 -2 -84 -2 -115 0 -32 2 -6 3 57 3 63 0 89 -1 58 -3z m137 -13 c-11 -5
-29 -8 -40 -8 -16 0 -15 2 5 8 34 11 60 11 35 0z m-2562 -7 c-13 -2 -33 -2
-45 0 -13 2 -3 4 22 4 25 0 35 -2 23 -4z"/>
<path d="M8320 2690 c0 -6 47 -10 122 -10 67 0 119 2 117 4 -11 9 -239 15
-239 6z"/>
<path d="M7838 2663 c45 -2 119 -2 165 0 45 1 8 3 -83 3 -91 0 -128 -2 -82 -3z"/>
<path d="M9383 2488 c-34 -23 -60 -45 -57 -50 3 -4 12 -1 20 7 9 8 35 27 60
41 24 14 44 30 44 35 0 11 5 14 -67 -33z"/>
<path d="M10199 2433 c-13 -16 -12 -17 4 -4 16 13 21 21 13 21 -2 0 -10 -8
-17 -17z"/>
<path d="M9205 2369 c-55 -37 -111 -77 -125 -89 -13 -12 -42 -31 -62 -42 -21
-12 -38 -25 -38 -30 0 -4 -6 -8 -14 -8 -7 0 -20 -7 -27 -17 -13 -15 -12 -15
11 -3 39 20 355 235 358 244 8 17 -8 9 -103 -55z"/>
<path d="M7630 2405 c-7 -8 -16 -15 -20 -15 -4 0 -54 -31 -111 -68 -135 -89
-224 -140 -254 -148 -14 -3 -25 -11 -25 -16 0 -22 60 8 228 114 205 130 231
148 210 148 -9 0 -21 -7 -28 -15z"/>
<path d="M6270 2406 c0 -2 7 -7 16 -10 8 -3 12 -2 9 4 -6 10 -25 14 -25 6z"/>
<path d="M5700 2359 c-128 -20 -225 -23 -285 -9 -22 5 -40 8 -42 7 -4 -5 151
-122 332 -252 99 -70 221 -158 270 -195 50 -36 125 -91 168 -121 43 -29 106
-74 141 -99 199 -142 261 -183 272 -183 7 0 11 -3 9 -7 -2 -3 44 -39 102 -80
59 -41 149 -107 202 -145 237 -174 331 -216 485 -216 141 -1 215 28 395 156
177 124 181 127 174 138 -3 6 -1 7 5 3 7 -4 33 7 58 25 47 32 47 32 23 45
l-24 12 27 -1 c14 -1 24 -5 21 -9 -9 -16 13 -7 39 16 15 12 24 27 20 31 -4 5
-1 5 5 1 13 -7 68 28 113 74 14 14 29 25 34 25 8 1 39 22 98 66 18 14 19 17 5
22 -11 4 -14 2 -11 -8 3 -7 -3 -16 -14 -19 -11 -4 -32 -18 -46 -31 -22 -20
-31 -23 -52 -15 -32 13 -43 13 -24 0 20 -12 0 -46 -24 -42 -12 2 -16 -3 -14
-15 2 -14 -3 -17 -22 -15 -18 2 -21 0 -12 -6 11 -8 11 -10 0 -14 -9 -4 -14 2
-16 18 -1 13 3 24 8 24 6 0 10 14 10 30 0 20 5 30 15 30 8 0 15 7 15 15 0 11
-11 15 -40 15 -22 0 -40 5 -40 10 0 6 -18 10 -40 10 -32 0 -40 4 -40 19 0 22
-27 48 -38 36 -4 -4 -1 -10 6 -12 22 -8 13 -19 -18 -21 -27 -2 -29 0 -27 28 2
30 12 40 19 18 6 -18 57 20 53 40 -1 9 3 24 9 32 10 12 -51 -25 -64 -40 -3 -3
-18 -14 -33 -24 -16 -9 -26 -20 -23 -23 3 -3 12 0 21 7 10 8 15 9 15 1 0 -6
-5 -11 -11 -11 -5 0 -7 -5 -3 -11 4 -8 0 -8 -15 0 -23 13 -66 -2 -56 -19 3 -6
0 -8 -7 -5 -7 3 -26 -6 -43 -20 -21 -18 -24 -23 -10 -18 21 7 21 5 -9 -17 -13
-10 -17 -10 -12 -2 11 18 0 15 -44 -14 -22 -15 -37 -31 -33 -37 3 -6 1 -7 -5
-3 -7 4 -59 -26 -119 -68 -60 -41 -128 -79 -153 -86 -52 -14 -116 -8 -163 16
-37 19 -358 241 -657 454 -253 180 -652 458 -701 488 -20 12 -43 21 -50 21 -8
-1 -66 -10 -129 -20z m2280 -609 c-6 -11 -15 -20 -20 -20 -16 0 -11 18 8 29
24 14 24 14 12 -9z m-140 -136 c0 -2 -9 0 -20 6 -11 6 -20 13 -20 16 0 2 9 0
20 -6 11 -6 20 -13 20 -16z m260 -4 c0 -5 -2 -10 -4 -10 -3 0 -8 5 -11 10 -3
6 -1 10 4 10 6 0 11 -4 11 -10z m-6 -99 c3 -5 0 -11 -8 -14 -15 -6 -26 1 -26
15 0 11 27 10 34 -1z"/>
<path d="M6783 2365 c-17 -19 -16 -24 5 -23 9 0 25 -3 35 -7 13 -5 17 -2 17
13 0 31 -36 41 -57 17z"/>
<path d="M6350 2357 c23 -23 181 -129 186 -124 2 2 -42 34 -98 72 -57 37 -96
61 -88 52z"/>
<path d="M8263 2353 c4 -3 -1 -12 -11 -20 -15 -13 -15 -13 6 -3 19 9 23 30 5
30 -4 0 -3 -3 0 -7z"/>
<path d="M8123 2258 c-13 -6 -23 -15 -23 -20 0 -4 -6 -8 -13 -8 -7 0 -27 -13
-45 -30 -18 -16 -36 -30 -40 -30 -13 0 -67 -49 -54 -50 7 0 20 9 29 20 10 11
22 20 28 20 5 0 21 12 34 25 12 14 26 23 30 21 4 -3 24 11 46 30 42 36 43 39
8 22z"/>
<path d="M7086 2215 c-3 -8 -1 -15 3 -15 5 0 11 7 15 15 3 8 1 15 -3 15 -5 0
-11 -7 -15 -15z"/>
<path d="M6555 2210 c3 -5 8 -10 11 -10 2 0 4 5 4 10 0 6 -5 10 -11 10 -5 0
-7 -4 -4 -10z"/>
<path d="M7115 2210 c-3 -5 -2 -10 3 -10 5 0 8 -11 7 -25 -3 -19 2 -26 20 -31
13 -3 30 -4 37 -1 7 3 3 6 -9 6 -24 1 -51 37 -32 43 7 2 6 8 -4 16 -10 9 -17
10 -22 2z"/>
<path d="M6580 2196 c0 -3 9 -10 20 -16 11 -6 20 -8 20 -6 0 3 -9 10 -20 16
-11 6 -20 8 -20 6z"/>
<path d="M7076 2182 c-2 -4 4 -13 15 -20 11 -7 19 -8 19 -2 0 5 -5 10 -11 10
-5 0 -7 5 -4 10 3 6 2 10 -4 10 -5 0 -12 -4 -15 -8z"/>
<path d="M9346 2175 c-11 -8 -15 -15 -9 -15 6 0 16 7 23 15 16 19 11 19 -14 0z"/>
<path d="M6660 2142 c19 -17 38 -28 41 -26 4 2 9 1 11 -4 1 -4 19 -18 38 -31
34 -22 34 -22 -4 11 -22 18 -58 43 -80 56 l-41 24 35 -30z"/>
<path d="M7900 2102 c-14 -9 -51 -35 -83 -59 -31 -24 -61 -43 -66 -43 -4 0
-20 -11 -34 -24 -14 -13 -27 -23 -29 -21 -2 1 -16 -11 -33 -27 -18 -17 -23
-26 -12 -22 9 3 17 10 17 15 0 5 4 8 9 6 9 -2 144 92 149 105 2 5 8 8 14 8 6
0 29 14 52 32 22 17 43 33 45 35 2 2 2 5 0 7 -2 2 -15 -3 -29 -12z"/>
<path d="M6790 2057 c0 -2 71 -54 158 -114 167 -117 182 -127 182 -120 0 2
-48 37 -106 78 -59 41 -124 86 -146 102 -62 44 -88 60 -88 54z"/>
<path d="M9105 2010 c-3 -6 1 -7 9 -4 18 7 21 14 7 14 -6 0 -13 -4 -16 -10z"/>
<path d="M9049 1972 c-20 -15 -45 -32 -54 -37 -15 -9 -14 -11 11 -10 16 0 29
5 29 11 0 6 14 23 30 37 38 34 30 33 -16 -1z"/>
<path d="M7452 1953 c-16 -6 -42 -56 -42 -82 0 -11 12 -33 26 -50 31 -38 88
-43 125 -11 28 22 14 27 -15 5 -30 -23 -74 -18 -101 10 -49 48 -20 113 56 125
l44 7 -40 1 c-22 0 -46 -2 -53 -5z"/>
<path d="M7565 1930 c10 -11 20 -20 23 -20 3 0 -3 9 -13 20 -10 11 -20 20 -23
20 -3 0 3 -9 13 -20z"/>
<path d="M8204 1934 c-18 -14 -18 -15 4 -4 12 6 22 13 22 15 0 8 -5 6 -26 -11z"/>
<path d="M9490 1899 c0 -5 5 -7 10 -4 6 3 10 8 10 11 0 2 -4 4 -10 4 -5 0 -10
-5 -10 -11z"/>
<path d="M7588 1868 c-4 -28 -4 -29 8 -13 7 10 11 21 9 26 -3 4 1 10 7 12 8 4
7 6 -3 6 -11 1 -18 -9 -21 -31z"/>
<path d="M8143 1885 c0 -8 4 -12 9 -9 5 3 6 10 3 15 -9 13 -12 11 -12 -6z"/>
<path d="M8855 1837 c-155 -107 -195 -139 -188 -149 3 -7 1 -8 -5 -4 -15 9
-84 -43 -79 -58 2 -6 12 -10 22 -8 10 2 14 -1 10 -7 -3 -6 -2 -11 4 -11 5 0
38 -13 73 -29 35 -16 79 -33 98 -37 43 -9 137 -10 168 -1 31 8 104 51 170 99
52 39 66 56 36 44 -8 -3 -25 -1 -37 6 l-21 11 22 8 c15 6 22 17 22 34 0 21 -5
25 -27 25 -17 0 -36 10 -51 28 -15 18 -25 23 -28 15 -3 -7 -23 -13 -44 -13
-22 0 -40 5 -43 13 -3 9 -9 9 -28 -1 -13 -6 -37 -11 -54 -10 -16 1 -39 -2 -50
-7 -11 -4 -2 5 20 21 22 15 42 31 45 34 3 4 19 6 37 5 27 -1 31 1 23 15 -6 11
-5 21 2 28 28 28 -14 6 -97 -51z m80 23 c-3 -5 -11 -10 -16 -10 -6 0 -7 5 -4
10 3 6 11 10 16 10 6 0 7 -4 4 -10z m-61 -86 c5 -13 18 -15 70 -11 55 4 68 2
82 -14 17 -18 15 -19 -32 -19 -28 0 -55 5 -62 12 -9 9 -12 9 -12 0 0 -7 -10
-12 -22 -12 -16 0 -19 3 -10 9 10 6 5 11 -17 21 -17 7 -28 16 -25 21 8 14 21
11 28 -7z m-110 -45 c-31 -12 -39 -10 -19 5 11 8 24 12 29 8 5 -3 1 -9 -10
-13z m10 -33 c-10 -8 -21 -12 -23 -10 -3 2 4 11 15 18 10 8 21 12 23 10 3 -2
-4 -11 -15 -18z m316 -1 c21 -23 22 -25 5 -31 -19 -8 -46 5 -53 24 -2 7 1 12
7 12 6 0 11 -7 11 -15 0 -8 7 -15 15 -15 12 0 13 4 5 19 -5 11 -15 22 -22 24
-7 3 -8 6 -2 6 6 1 21 -10 34 -24z m-385 -13 c-3 -3 -11 0 -18 7 -9 10 -8 11
6 5 10 -3 15 -9 12 -12z m429 -21 c3 -5 -12 -18 -33 -28 -26 -13 -37 -15 -34
-7 2 7 18 16 34 19 16 4 27 11 23 16 -3 5 -3 9 0 9 3 0 7 -4 10 -9z m-495 -45
c-3 -3 -11 5 -18 17 -13 21 -12 21 5 5 10 -10 16 -20 13 -22z m66 -26 c3 -5 1
-10 -4 -10 -6 0 -11 5 -11 10 0 6 2 10 4 10 3 0 8 -4 11 -10z m58 3 c-7 -2
-19 -2 -25 0 -7 3 -2 5 12 5 14 0 19 -2 13 -5z m231 -2 c3 -5 -3 -11 -13 -14
-14 -3 -18 -1 -14 9 6 16 19 18 27 5z m-64 -11 c0 -5 -4 -10 -10 -10 -5 0 -10
5 -10 10 0 6 5 10 10 10 6 0 10 -4 10 -10z m-125 -20 c3 -6 -1 -7 -9 -4 -18 7
-21 14 -7 14 6 0 13 -4 16 -10z m174 -4 c-2 -2 -22 -6 -44 -9 -27 -4 -35 -3
-25 3 14 9 79 15 69 6z"/>
<path d="M9456 1875 c-11 -8 -15 -15 -9 -15 6 0 16 7 23 15 16 19 11 19 -14 0z"/>
<path d="M8045 1825 c-16 -14 -24 -25 -17 -25 7 0 10 -5 6 -11 -5 -8 -1 -8 14
0 27 15 39 33 15 24 -17 -6 -17 -5 1 15 25 29 18 27 -19 -3z"/>
<path d="M9285 1819 c-11 -16 -1 -19 13 -3 7 8 8 14 3 14 -5 0 -13 -5 -16 -11z"/>
<path d="M7140 1812 c0 -4 10 -13 23 -21 22 -14 22 -14 3 8 -20 22 -26 25 -26
13z"/>
<path d="M9359 1803 c-13 -16 -12 -17 4 -4 16 13 21 21 13 21 -2 0 -10 -8 -17
-17z"/>
<path d="M9310 1770 c-14 -11 -31 -18 -37 -15 -21 7 -42 -5 -36 -21 3 -8 1
-14 -5 -14 -6 0 -12 6 -15 13 -2 7 -8 8 -13 3 -5 -5 -4 -11 4 -13 10 -4 9 -9
-4 -24 -24 -26 -5 -23 30 5 17 15 26 28 21 36 -5 8 -2 10 11 6 12 -4 30 3 49
19 36 29 31 33 -5 5z"/>
<path d="M7190 1776 c0 -10 128 -96 141 -96 8 1 1 8 -16 17 -16 8 -39 23 -50
32 -26 23 -75 53 -75 47z"/>
<path d="M8463 1737 c-29 -17 -55 -37 -57 -44 -3 -7 18 4 47 24 89 62 93 71
10 20z"/>
<path d="M8251 1614 c0 -11 3 -14 6 -6 3 7 2 16 -1 19 -3 4 -6 -2 -5 -13z"/>
<path d="M8167 1574 c6 -15 23 -19 23 -5 0 5 -7 11 -14 14 -10 4 -13 1 -9 -9z"/>
</g>
</svg>
